<mxfile host="65bd71144e">
    <diagram id="LtNnUxTMk3nnHeWBmE_S" name="PÃ¡gina-1">
        <mxGraphModel dx="437" dy="601" grid="1" gridSize="10" guides="1" tooltips="1" connect="1" arrows="1" fold="1" page="1" pageScale="1" pageWidth="827" pageHeight="1169" math="0" shadow="0">
            <root>
                <mxCell id="0"/>
                <mxCell id="1" parent="0"/>
                <mxCell id="115" style="edgeStyle=none;html=1;startArrow=diamondThin;startFill=1;endArrow=block;endFill=1;strokeColor=default;strokeWidth=1;" parent="1" source="13" target="85" edge="1">
                    <mxGeometry relative="1" as="geometry">
                        <Array as="points">
                            <mxPoint x="100" y="160"/>
                        </Array>
                    </mxGeometry>
                </mxCell>
                <mxCell id="13" value="User" style="swimlane;fontStyle=0;childLayout=stackLayout;horizontal=1;startSize=26;fillColor=none;horizontalStack=0;resizeParent=1;resizeParentMax=0;resizeLast=0;collapsible=1;marginBottom=0;" parent="1" vertex="1" collapsed="1">
                    <mxGeometry y="226" width="90" height="26" as="geometry">
                        <mxRectangle y="226" width="120" height="52" as="alternateBounds"/>
                    </mxGeometry>
                </mxCell>
                <mxCell id="116" style="edgeStyle=none;html=1;startArrow=diamondThin;startFill=1;endArrow=block;endFill=1;strokeColor=default;strokeWidth=1;" parent="1" source="19" target="85" edge="1">
                    <mxGeometry relative="1" as="geometry">
                        <Array as="points">
                            <mxPoint x="100" y="160"/>
                        </Array>
                    </mxGeometry>
                </mxCell>
                <mxCell id="19" value="Driver" style="swimlane;fontStyle=0;childLayout=stackLayout;horizontal=1;startSize=26;fillColor=none;horizontalStack=0;resizeParent=1;resizeParentMax=0;resizeLast=0;collapsible=1;marginBottom=0;" parent="1" vertex="1" collapsed="1">
                    <mxGeometry x="120" y="226" width="90" height="26" as="geometry">
                        <mxRectangle x="120" y="226" width="120" height="52" as="alternateBounds"/>
                    </mxGeometry>
                </mxCell>
                <mxCell id="25" value="Route" style="swimlane;fontStyle=0;childLayout=stackLayout;horizontal=1;startSize=26;fillColor=none;horizontalStack=0;resizeParent=1;resizeParentMax=0;resizeLast=0;collapsible=1;marginBottom=0;" parent="1" vertex="1">
                    <mxGeometry x="690" y="632" width="120" height="104" as="geometry"/>
                </mxCell>
                <mxCell id="26" value="ID" style="text;strokeColor=none;fillColor=none;align=left;verticalAlign=top;spacingLeft=4;spacingRight=4;overflow=hidden;rotatable=0;points=[[0,0.5],[1,0.5]];portConstraint=eastwest;" parent="25" vertex="1">
                    <mxGeometry y="26" width="120" height="26" as="geometry"/>
                </mxCell>
                <mxCell id="27" value="Start = [ ]" style="text;strokeColor=none;fillColor=none;align=left;verticalAlign=top;spacingLeft=4;spacingRight=4;overflow=hidden;rotatable=0;points=[[0,0.5],[1,0.5]];portConstraint=eastwest;" parent="25" vertex="1">
                    <mxGeometry y="52" width="120" height="26" as="geometry"/>
                </mxCell>
                <mxCell id="28" value="End = [ ]" style="text;strokeColor=none;fillColor=none;align=left;verticalAlign=top;spacingLeft=4;spacingRight=4;overflow=hidden;rotatable=0;points=[[0,0.5],[1,0.5]];portConstraint=eastwest;" parent="25" vertex="1">
                    <mxGeometry y="78" width="120" height="26" as="geometry"/>
                </mxCell>
                <mxCell id="158" style="edgeStyle=none;html=1;startArrow=diamondThin;startFill=1;endArrow=block;endFill=1;strokeColor=default;strokeWidth=1;" parent="1" source="29" target="149" edge="1">
                    <mxGeometry relative="1" as="geometry"/>
                </mxCell>
                <mxCell id="29" value="Uber X" style="swimlane;fontStyle=0;childLayout=stackLayout;horizontal=1;startSize=26;fillColor=none;horizontalStack=0;resizeParent=1;resizeParentMax=0;resizeLast=0;collapsible=1;marginBottom=0;" parent="1" vertex="1" collapsed="1">
                    <mxGeometry x="40" y="632" width="70" height="26" as="geometry">
                        <mxRectangle x="40" y="632" width="120" height="28" as="alternateBounds"/>
                    </mxGeometry>
                </mxCell>
                <mxCell id="159" style="edgeStyle=none;html=1;startArrow=diamondThin;startFill=1;endArrow=block;endFill=1;strokeColor=default;strokeWidth=1;" parent="1" source="36" target="149" edge="1">
                    <mxGeometry relative="1" as="geometry"/>
                </mxCell>
                <mxCell id="36" value="Uber Pool" style="swimlane;fontStyle=0;childLayout=stackLayout;horizontal=1;startSize=26;fillColor=none;horizontalStack=0;resizeParent=1;resizeParentMax=0;resizeLast=0;collapsible=1;marginBottom=0;" parent="1" vertex="1" collapsed="1">
                    <mxGeometry x="120" y="632" width="90" height="26" as="geometry">
                        <mxRectangle x="200" y="632" width="120" height="28" as="alternateBounds"/>
                    </mxGeometry>
                </mxCell>
                <mxCell id="160" style="edgeStyle=none;html=1;startArrow=diamondThin;startFill=1;endArrow=block;endFill=1;strokeColor=default;strokeWidth=1;" parent="1" source="43" target="152" edge="1">
                    <mxGeometry relative="1" as="geometry"/>
                </mxCell>
                <mxCell id="43" value="Uber Black" style="swimlane;fontStyle=0;childLayout=stackLayout;horizontal=1;startSize=26;fillColor=none;horizontalStack=0;resizeParent=1;resizeParentMax=0;resizeLast=0;collapsible=1;marginBottom=0;" parent="1" vertex="1" collapsed="1">
                    <mxGeometry x="240" y="632" width="90" height="26" as="geometry">
                        <mxRectangle x="360" y="632" width="130" height="78" as="alternateBounds"/>
                    </mxGeometry>
                </mxCell>
                <mxCell id="161" style="edgeStyle=none;html=1;startArrow=diamondThin;startFill=1;endArrow=block;endFill=1;strokeColor=default;strokeWidth=1;" parent="1" source="65" target="152" edge="1">
                    <mxGeometry relative="1" as="geometry"/>
                </mxCell>
                <mxCell id="65" value="Uber Van" style="swimlane;fontStyle=0;childLayout=stackLayout;horizontal=1;startSize=26;fillColor=none;horizontalStack=0;resizeParent=1;resizeParentMax=0;resizeLast=0;collapsible=1;marginBottom=0;" parent="1" vertex="1" collapsed="1">
                    <mxGeometry x="350" y="632" width="80" height="26" as="geometry">
                        <mxRectangle x="520" y="632" width="130" height="78" as="alternateBounds"/>
                    </mxGeometry>
                </mxCell>
                <mxCell id="122" style="edgeStyle=none;html=1;startArrow=diamondThin;startFill=1;endArrow=block;endFill=1;strokeColor=default;strokeWidth=1;" parent="1" source="72" target="117" edge="1">
                    <mxGeometry relative="1" as="geometry"/>
                </mxCell>
                <mxCell id="72" value="Card" style="swimlane;fontStyle=0;childLayout=stackLayout;horizontal=1;startSize=26;fillColor=none;horizontalStack=0;resizeParent=1;resizeParentMax=0;resizeLast=0;collapsible=1;marginBottom=0;" parent="1" vertex="1" collapsed="1">
                    <mxGeometry x="280" y="226" width="60" height="26" as="geometry">
                        <mxRectangle x="280" y="226" width="120" height="130" as="alternateBounds"/>
                    </mxGeometry>
                </mxCell>
                <mxCell id="73" value="ID" style="text;strokeColor=none;fillColor=none;align=left;verticalAlign=top;spacingLeft=4;spacingRight=4;overflow=hidden;rotatable=0;points=[[0,0.5],[1,0.5]];portConstraint=eastwest;" parent="72" vertex="1">
                    <mxGeometry y="26" width="60" height="26" as="geometry"/>
                </mxCell>
                <mxCell id="76" value="Number" style="text;strokeColor=none;fillColor=none;align=left;verticalAlign=top;spacingLeft=4;spacingRight=4;overflow=hidden;rotatable=0;points=[[0,0.5],[1,0.5]];portConstraint=eastwest;" parent="72" vertex="1">
                    <mxGeometry y="52" width="60" height="26" as="geometry"/>
                </mxCell>
                <mxCell id="74" value="CVV" style="text;strokeColor=none;fillColor=none;align=left;verticalAlign=top;spacingLeft=4;spacingRight=4;overflow=hidden;rotatable=0;points=[[0,0.5],[1,0.5]];portConstraint=eastwest;" parent="72" vertex="1">
                    <mxGeometry y="78" width="60" height="26" as="geometry"/>
                </mxCell>
                <mxCell id="75" value="Date" style="text;strokeColor=none;fillColor=none;align=left;verticalAlign=top;spacingLeft=4;spacingRight=4;overflow=hidden;rotatable=0;points=[[0,0.5],[1,0.5]];portConstraint=eastwest;" parent="72" vertex="1">
                    <mxGeometry y="104" width="60" height="26" as="geometry"/>
                </mxCell>
                <mxCell id="123" style="edgeStyle=none;html=1;startArrow=diamondThin;startFill=1;endArrow=block;endFill=1;strokeColor=default;strokeWidth=1;" parent="1" source="77" target="117" edge="1">
                    <mxGeometry relative="1" as="geometry">
                        <Array as="points">
                            <mxPoint x="500" y="150"/>
                            <mxPoint x="340" y="150"/>
                        </Array>
                    </mxGeometry>
                </mxCell>
                <mxCell id="77" value="Paypal" style="swimlane;fontStyle=0;childLayout=stackLayout;horizontal=1;startSize=26;fillColor=none;horizontalStack=0;resizeParent=1;resizeParentMax=0;resizeLast=0;collapsible=1;marginBottom=0;" parent="1" vertex="1" collapsed="1">
                    <mxGeometry x="440" y="226" width="70" height="26" as="geometry">
                        <mxRectangle x="440" y="226" width="120" height="78" as="alternateBounds"/>
                    </mxGeometry>
                </mxCell>
                <mxCell id="78" value="ID" style="text;strokeColor=none;fillColor=none;align=left;verticalAlign=top;spacingLeft=4;spacingRight=4;overflow=hidden;rotatable=0;points=[[0,0.5],[1,0.5]];portConstraint=eastwest;" parent="77" vertex="1">
                    <mxGeometry y="26" width="70" height="26" as="geometry"/>
                </mxCell>
                <mxCell id="80" value="E-mail" style="text;strokeColor=none;fillColor=none;align=left;verticalAlign=top;spacingLeft=4;spacingRight=4;overflow=hidden;rotatable=0;points=[[0,0.5],[1,0.5]];portConstraint=eastwest;" parent="77" vertex="1">
                    <mxGeometry y="52" width="70" height="26" as="geometry"/>
                </mxCell>
                <mxCell id="124" style="edgeStyle=none;html=1;startArrow=diamondThin;startFill=1;endArrow=block;endFill=1;strokeColor=default;strokeWidth=1;" parent="1" source="82" target="117" edge="1">
                    <mxGeometry relative="1" as="geometry">
                        <Array as="points">
                            <mxPoint x="660" y="150"/>
                            <mxPoint x="340" y="150"/>
                        </Array>
                    </mxGeometry>
                </mxCell>
                <mxCell id="82" value="Cash" style="swimlane;fontStyle=0;childLayout=stackLayout;horizontal=1;startSize=26;fillColor=none;horizontalStack=0;resizeParent=1;resizeParentMax=0;resizeLast=0;collapsible=1;marginBottom=0;" parent="1" vertex="1" collapsed="1">
                    <mxGeometry x="600" y="226" width="60" height="26" as="geometry">
                        <mxRectangle x="600" y="226" width="120" height="52" as="alternateBounds"/>
                    </mxGeometry>
                </mxCell>
                <mxCell id="83" value="ID" style="text;strokeColor=none;fillColor=none;align=left;verticalAlign=top;spacingLeft=4;spacingRight=4;overflow=hidden;rotatable=0;points=[[0,0.5],[1,0.5]];portConstraint=eastwest;" parent="82" vertex="1">
                    <mxGeometry y="26" width="60" height="26" as="geometry"/>
                </mxCell>
                <mxCell id="85" value="Acount" style="swimlane;fontStyle=0;childLayout=stackLayout;horizontal=1;startSize=26;fillColor=none;horizontalStack=0;resizeParent=1;resizeParentMax=0;resizeLast=0;collapsible=1;marginBottom=0;" parent="1" vertex="1">
                    <mxGeometry x="55" y="40" width="120" height="156" as="geometry">
                        <mxRectangle x="55" y="40" width="90" height="26" as="alternateBounds"/>
                    </mxGeometry>
                </mxCell>
                <mxCell id="86" value="ID" style="text;strokeColor=none;fillColor=none;align=left;verticalAlign=top;spacingLeft=4;spacingRight=4;overflow=hidden;rotatable=0;points=[[0,0.5],[1,0.5]];portConstraint=eastwest;" parent="85" vertex="1">
                    <mxGeometry y="26" width="120" height="26" as="geometry"/>
                </mxCell>
                <mxCell id="87" value="Name" style="text;strokeColor=none;fillColor=none;align=left;verticalAlign=top;spacingLeft=4;spacingRight=4;overflow=hidden;rotatable=0;points=[[0,0.5],[1,0.5]];portConstraint=eastwest;" parent="85" vertex="1">
                    <mxGeometry y="52" width="120" height="26" as="geometry"/>
                </mxCell>
                <mxCell id="88" value="Document" style="text;strokeColor=none;fillColor=none;align=left;verticalAlign=top;spacingLeft=4;spacingRight=4;overflow=hidden;rotatable=0;points=[[0,0.5],[1,0.5]];portConstraint=eastwest;" parent="85" vertex="1">
                    <mxGeometry y="78" width="120" height="26" as="geometry"/>
                </mxCell>
                <mxCell id="89" value="Email" style="text;strokeColor=none;fillColor=none;align=left;verticalAlign=top;spacingLeft=4;spacingRight=4;overflow=hidden;rotatable=0;points=[[0,0.5],[1,0.5]];portConstraint=eastwest;" parent="85" vertex="1">
                    <mxGeometry y="104" width="120" height="26" as="geometry"/>
                </mxCell>
                <mxCell id="90" value="Password" style="text;strokeColor=none;fillColor=none;align=left;verticalAlign=top;spacingLeft=4;spacingRight=4;overflow=hidden;rotatable=0;points=[[0,0.5],[1,0.5]];portConstraint=eastwest;" parent="85" vertex="1">
                    <mxGeometry y="130" width="120" height="26" as="geometry"/>
                </mxCell>
                <mxCell id="117" value="Payments" style="swimlane;fontStyle=1;align=center;verticalAlign=top;childLayout=stackLayout;horizontal=1;startSize=26;horizontalStack=0;resizeParent=1;resizeParentMax=0;resizeLast=0;collapsible=1;marginBottom=0;" parent="1" vertex="1">
                    <mxGeometry x="280" y="40" width="120" height="52" as="geometry">
                        <mxRectangle x="280" y="40" width="90" height="26" as="alternateBounds"/>
                    </mxGeometry>
                </mxCell>
                <mxCell id="118" value="ID" style="text;strokeColor=none;fillColor=none;align=left;verticalAlign=top;spacingLeft=4;spacingRight=4;overflow=hidden;rotatable=0;points=[[0,0.5],[1,0.5]];portConstraint=eastwest;" parent="117" vertex="1">
                    <mxGeometry y="26" width="120" height="26" as="geometry"/>
                </mxCell>
                <mxCell id="125" value="Cars" style="swimlane;fontStyle=0;childLayout=stackLayout;horizontal=1;startSize=26;fillColor=none;horizontalStack=0;resizeParent=1;resizeParentMax=0;resizeLast=0;collapsible=1;marginBottom=0;" parent="1" vertex="1">
                    <mxGeometry x="40" y="320" width="120" height="130" as="geometry"/>
                </mxCell>
                <mxCell id="126" value="ID" style="text;strokeColor=none;fillColor=none;align=left;verticalAlign=top;spacingLeft=4;spacingRight=4;overflow=hidden;rotatable=0;points=[[0,0.5],[1,0.5]];portConstraint=eastwest;" parent="125" vertex="1">
                    <mxGeometry y="26" width="120" height="26" as="geometry"/>
                </mxCell>
                <mxCell id="127" value="Licencia" style="text;strokeColor=none;fillColor=none;align=left;verticalAlign=top;spacingLeft=4;spacingRight=4;overflow=hidden;rotatable=0;points=[[0,0.5],[1,0.5]];portConstraint=eastwest;" parent="125" vertex="1">
                    <mxGeometry y="52" width="120" height="26" as="geometry"/>
                </mxCell>
                <mxCell id="128" value="Driver" style="text;strokeColor=none;fillColor=none;align=left;verticalAlign=top;spacingLeft=4;spacingRight=4;overflow=hidden;rotatable=0;points=[[0,0.5],[1,0.5]];portConstraint=eastwest;" parent="125" vertex="1">
                    <mxGeometry y="78" width="120" height="26" as="geometry"/>
                </mxCell>
                <mxCell id="129" value="Passengers" style="text;strokeColor=none;fillColor=none;align=left;verticalAlign=top;spacingLeft=4;spacingRight=4;overflow=hidden;rotatable=0;points=[[0,0.5],[1,0.5]];portConstraint=eastwest;" parent="125" vertex="1">
                    <mxGeometry y="104" width="120" height="26" as="geometry"/>
                </mxCell>
                <mxCell id="155" style="edgeStyle=none;html=1;startArrow=diamondThin;startFill=1;endArrow=block;endFill=1;strokeColor=default;strokeWidth=1;" parent="1" source="149" target="125" edge="1">
                    <mxGeometry relative="1" as="geometry"/>
                </mxCell>
                <mxCell id="149" value="CarsEconomy" style="swimlane;fontStyle=0;childLayout=stackLayout;horizontal=1;startSize=26;fillColor=none;horizontalStack=0;resizeParent=1;resizeParentMax=0;resizeLast=0;collapsible=1;marginBottom=0;" parent="1" vertex="1">
                    <mxGeometry x="40" y="500" width="120" height="78" as="geometry"/>
                </mxCell>
                <mxCell id="150" value="Brand" style="text;strokeColor=none;fillColor=none;align=left;verticalAlign=top;spacingLeft=4;spacingRight=4;overflow=hidden;rotatable=0;points=[[0,0.5],[1,0.5]];portConstraint=eastwest;" parent="149" vertex="1">
                    <mxGeometry y="26" width="120" height="26" as="geometry"/>
                </mxCell>
                <mxCell id="151" value="Model" style="text;strokeColor=none;fillColor=none;align=left;verticalAlign=top;spacingLeft=4;spacingRight=4;overflow=hidden;rotatable=0;points=[[0,0.5],[1,0.5]];portConstraint=eastwest;" parent="149" vertex="1">
                    <mxGeometry y="52" width="120" height="26" as="geometry"/>
                </mxCell>
                <mxCell id="157" style="edgeStyle=none;html=1;startArrow=diamondThin;startFill=1;endArrow=block;endFill=1;strokeColor=default;strokeWidth=1;" parent="1" source="152" target="125" edge="1">
                    <mxGeometry relative="1" as="geometry"/>
                </mxCell>
                <mxCell id="152" value="CarsLuxury" style="swimlane;fontStyle=0;childLayout=stackLayout;horizontal=1;startSize=26;fillColor=none;horizontalStack=0;resizeParent=1;resizeParentMax=0;resizeLast=0;collapsible=1;marginBottom=0;" parent="1" vertex="1">
                    <mxGeometry x="200" y="500" width="130" height="78" as="geometry"/>
                </mxCell>
                <mxCell id="153" value="TypeCarAccepted = [ ]" style="text;strokeColor=none;fillColor=none;align=left;verticalAlign=top;spacingLeft=4;spacingRight=4;overflow=hidden;rotatable=0;points=[[0,0.5],[1,0.5]];portConstraint=eastwest;" parent="152" vertex="1">
                    <mxGeometry y="26" width="130" height="26" as="geometry"/>
                </mxCell>
                <mxCell id="154" value="SeatMaterial = [ ]" style="text;strokeColor=none;fillColor=none;align=left;verticalAlign=top;spacingLeft=4;spacingRight=4;overflow=hidden;rotatable=0;points=[[0,0.5],[1,0.5]];portConstraint=eastwest;" parent="152" vertex="1">
                    <mxGeometry y="52" width="130" height="26" as="geometry"/>
                </mxCell>
            </root>
        </mxGraphModel>
    </diagram>
</mxfile>